<svg width="25" height="25" viewBox="0 0 25 25" fill="none" xmlns="http://www.w3.org/2000/svg">
<path fill-rule="evenodd" clip-rule="evenodd" d="M4.71094 11.3273C4.71094 7.32321 7.95687 4.07727 11.9609 4.07727C15.965 4.07727 19.2109 7.32321 19.2109 11.3273C19.2109 15.3313 15.965 18.5773 11.9609 18.5773C7.95687 18.5773 4.71094 15.3313 4.71094 11.3273ZM11.9609 2.57727C7.12845 2.57727 3.21094 6.49478 3.21094 11.3273C3.21094 16.1598 7.12845 20.0773 11.9609 20.0773C14.1072 20.0773 16.0729 19.3046 17.5952 18.0222L20.4306 20.8576C20.7235 21.1505 21.1984 21.1505 21.4913 20.8576C21.7842 20.5647 21.7842 20.0898 21.4913 19.7969L18.6558 16.9615C19.9382 15.4392 20.7109 13.4735 20.7109 11.3273C20.7109 6.49478 16.7934 2.57727 11.9609 2.57727Z" fill="#4C5068"/>
</svg>
